<svg width="52" height="46" viewBox="0 0 52 46" fill="none" xmlns="http://www.w3.org/2000/svg">
<path d="M49.8467 45.5226H2.13705C1.69124 45.5226 1.26369 45.3456 0.948451 45.0306C0.633216 44.7157 0.456116 44.2885 0.456116 43.843V43.4591C0.456116 43.0137 0.633216 42.5865 0.948451 42.2715C1.26369 41.9565 1.69124 41.7795 2.13705 41.7795H49.8467C50.2925 41.7795 50.72 41.9565 51.0353 42.2715C51.3505 42.5865 51.5276 43.0137 51.5276 43.4591V43.843C51.5276 44.2885 51.3505 44.7157 51.0353 45.0306C50.72 45.3456 50.2925 45.5226 49.8467 45.5226ZM2.13705 42.4226C1.86192 42.4226 1.59806 42.5318 1.40352 42.7262C1.20897 42.9206 1.09967 43.1842 1.09967 43.4591V43.843C1.09967 43.9791 1.12651 44.1139 1.17864 44.2397C1.23077 44.3654 1.30719 44.4797 1.40352 44.576C1.49984 44.6722 1.6142 44.7486 1.74006 44.8006C1.86592 44.8527 2.00082 44.8795 2.13705 44.8795H49.8467C50.1216 44.8789 50.3851 44.7695 50.5795 44.5752C50.7739 44.381 50.8834 44.1177 50.884 43.843V43.4591C50.8834 43.1844 50.7739 42.9211 50.5795 42.7269C50.3851 42.5326 50.1216 42.4232 49.8467 42.4226H2.13705Z" fill="#3B6F7F"/>
<path d="M31.4144 42.4226H16.603C16.5176 42.4226 16.4358 42.3887 16.3754 42.3284C16.3151 42.2681 16.2812 42.1864 16.2812 42.1011V34.3559C16.2812 34.2704 16.315 34.1884 16.3753 34.1277C16.4356 34.067 16.5174 34.0326 16.603 34.032H31.4144C31.4999 34.0326 31.5818 34.067 31.642 34.1277C31.7023 34.1884 31.7362 34.2704 31.7361 34.3559V42.1011C31.7361 42.1864 31.7022 42.2681 31.6419 42.3284C31.5816 42.3887 31.4997 42.4226 31.4144 42.4226ZM16.9247 41.7796H31.0926V34.6774H16.9247V41.7796Z" fill="#3B6F7F"/>
<path d="M10.1147 42.423H5.58582C5.50047 42.423 5.41863 42.3891 5.35829 42.3288C5.29794 42.2685 5.26404 42.1868 5.26404 42.1015V18.2085C5.26404 18.1232 5.29794 18.0414 5.35829 17.9811C5.41863 17.9208 5.50047 17.887 5.58582 17.887H10.1147C10.2001 17.887 10.2819 17.9208 10.3423 17.9811C10.4026 18.0414 10.4365 18.1232 10.4365 18.2085V42.1015C10.4365 42.1868 10.4026 42.2685 10.3423 42.3288C10.2819 42.3891 10.2001 42.423 10.1147 42.423ZM5.9076 41.78H9.79295V18.53H5.9076V41.78Z" fill="#3B6F7F"/>
<path d="M15.3781 18.5294H0.321777C0.279521 18.5294 0.23768 18.5211 0.19864 18.5049C0.1596 18.4888 0.124121 18.4651 0.0942416 18.4352C0.0643618 18.4054 0.040662 18.3699 0.0244911 18.3309C0.00832023 18.2919 0 18.2501 0 18.2079V7.80419C0 7.71892 0.0338965 7.63714 0.0942416 7.57685C0.154587 7.51655 0.236436 7.48267 0.321777 7.48267H10.5226C10.6068 7.4831 10.6875 7.51573 10.7483 7.57384L15.6038 12.303C15.6357 12.3341 15.6607 12.3715 15.6773 12.4128C15.6938 12.4542 15.7015 12.4985 15.6999 12.543V18.2103C15.6993 18.2951 15.6651 18.3763 15.6048 18.4361C15.5445 18.4959 15.463 18.5294 15.3781 18.5294ZM0.643554 17.8816H15.0515V12.6773L10.3881 8.1329H0.638754L0.643554 17.8816Z" fill="#3B6F7F"/>
<path d="M13.4809 16.1085H2.21869C2.13335 16.1085 2.05151 16.0747 1.99116 16.0144C1.93082 15.9541 1.89691 15.8723 1.89691 15.787V10.2349C1.89691 10.1496 1.93082 10.0678 1.99116 10.0075C2.05151 9.94723 2.13335 9.91334 2.21869 9.91334H9.66281C9.70423 9.91298 9.7453 9.92086 9.78365 9.93651C9.82199 9.95216 9.85682 9.97528 9.88613 10.0045L13.7043 13.7236C13.7364 13.7545 13.7618 13.7919 13.7788 13.8332C13.7957 13.8745 13.8039 13.9189 13.8027 13.9635V15.7966C13.8002 15.8802 13.7652 15.9596 13.7051 16.0178C13.645 16.076 13.5646 16.1086 13.4809 16.1085ZM2.54047 15.4655H13.1591V14.0883L9.53074 10.5564H2.54047V15.4655Z" fill="#3B6F7F"/>
<path d="M46.2282 42.4226H31.4144C31.3291 42.4226 31.2472 42.3887 31.1869 42.3284C31.1266 42.2681 31.0927 42.1864 31.0927 42.1011V34.3559C31.0926 34.2704 31.1265 34.1884 31.1868 34.1277C31.247 34.067 31.3289 34.0326 31.4144 34.032H46.2282C46.3138 34.0326 46.3956 34.067 46.4559 34.1277C46.5162 34.1884 46.55 34.2704 46.55 34.3559V42.1011C46.55 42.1864 46.5161 42.2681 46.4558 42.3284C46.3954 42.3887 46.3136 42.4226 46.2282 42.4226ZM31.7362 41.7796H45.9041V34.6774H31.7362V41.7796Z" fill="#3B6F7F"/>
<path d="M46.4729 27.9087H31.6591C31.5737 27.9087 31.4919 27.8748 31.4315 27.8145C31.3712 27.7542 31.3373 27.6725 31.3373 27.5872V19.8396C31.3373 19.7974 31.3456 19.7556 31.3618 19.7165C31.3779 19.6775 31.4016 19.6421 31.4315 19.6122C31.4614 19.5824 31.4969 19.5587 31.5359 19.5425C31.575 19.5264 31.6168 19.5181 31.6591 19.5181H46.4729C46.5151 19.5181 46.557 19.5264 46.596 19.5425C46.635 19.5587 46.6705 19.5824 46.7004 19.6122C46.7303 19.6421 46.754 19.6775 46.7701 19.7165C46.7863 19.7556 46.7946 19.7974 46.7946 19.8396V27.5872C46.7946 27.6725 46.7607 27.7542 46.7004 27.8145C46.64 27.8748 46.5582 27.9087 46.4729 27.9087ZM31.9808 27.2657H46.1487V20.1611H31.9808V27.2657Z" fill="#3B6F7F"/>
<path d="M15.3779 15.9379C15.3186 15.9373 15.2605 15.9207 15.2098 15.8899C15.1628 15.8614 15.1239 15.8213 15.097 15.7733C15.0701 15.7254 15.056 15.6714 15.0561 15.6164V12.6772L12.979 10.6521C12.9407 10.6148 12.9124 10.5686 12.8965 10.5177C12.8806 10.4668 12.8776 10.4127 12.8879 10.3603C12.8981 10.3079 12.9212 10.2589 12.9552 10.2177C12.9891 10.1765 13.0328 10.1444 13.0822 10.1242L37.6982 0.0228534C37.7754 -0.00761779 37.8612 -0.00761779 37.9384 0.0228534C37.9774 0.03905 38.0128 0.062891 38.0425 0.092972C38.0722 0.123053 38.0956 0.158761 38.1113 0.198003L39.3576 3.3172C39.3874 3.39147 39.3884 3.47419 39.3604 3.54918C39.3324 3.62417 39.2775 3.68604 39.2063 3.72269L15.5172 15.9091C15.4736 15.9292 15.4259 15.9391 15.3779 15.9379ZM13.7786 10.5345L15.6036 12.3101C15.6355 12.3412 15.6605 12.3786 15.677 12.4199C15.6936 12.4612 15.7013 12.5055 15.6997 12.55V15.0982L38.6588 3.2884L37.6406 0.752259L13.7786 10.5345Z" fill="#3B6F7F"/>
<path d="M39.0647 20.161C38.9794 20.161 38.8975 20.1272 38.8372 20.0669C38.7768 20.0066 38.7429 19.9248 38.7429 19.8395V3.43017C38.7429 3.34489 38.7768 3.2631 38.8372 3.20281C38.8975 3.14251 38.9794 3.10864 39.0647 3.10864C39.15 3.10864 39.2319 3.14251 39.2922 3.20281C39.3526 3.2631 39.3865 3.34489 39.3865 3.43017V19.8395C39.3865 19.9248 39.3526 20.0066 39.2922 20.0669C39.2319 20.1272 39.15 20.161 39.0647 20.161Z" fill="#3B6F7F"/>
<path d="M35.4242 25.7542C35.3389 25.7542 35.257 25.7203 35.1967 25.66C35.1363 25.5997 35.1024 25.5179 35.1024 25.4327V21.9944C35.1024 21.9091 35.1363 21.8273 35.1967 21.767C35.257 21.7067 35.3389 21.6729 35.4242 21.6729C35.5095 21.6729 35.5914 21.7067 35.6517 21.767C35.7121 21.8273 35.746 21.9091 35.746 21.9944V25.4327C35.746 25.4749 35.7377 25.5167 35.7215 25.5557C35.7053 25.5947 35.6816 25.6302 35.6517 25.66C35.6218 25.6899 35.5864 25.7136 35.5473 25.7297C35.5083 25.7459 35.4665 25.7542 35.4242 25.7542Z" fill="#3B6F7F"/>
<path d="M39.0647 25.7546C38.9794 25.7546 38.8975 25.7208 38.8372 25.6605C38.7768 25.6002 38.7429 25.5184 38.7429 25.4331V21.9948C38.7499 21.914 38.7869 21.8388 38.8467 21.784C38.9065 21.7291 38.9847 21.6987 39.0659 21.6987C39.1471 21.6987 39.2253 21.7291 39.2851 21.784C39.3449 21.8388 39.3819 21.914 39.3889 21.9948V25.4331C39.3889 25.4755 39.3805 25.5175 39.3642 25.5567C39.3478 25.5959 39.3239 25.6314 39.2938 25.6613C39.2637 25.6912 39.2279 25.7148 39.1886 25.7308C39.1493 25.7469 39.1072 25.7549 39.0647 25.7546Z" fill="#3B6F7F"/>
<path d="M42.7198 25.7542C42.6345 25.7542 42.5527 25.7203 42.4923 25.66C42.432 25.5997 42.3981 25.5179 42.3981 25.4327V21.9944C42.3981 21.9091 42.432 21.8273 42.4923 21.767C42.5527 21.7067 42.6345 21.6729 42.7198 21.6729C42.8052 21.6729 42.887 21.7067 42.9474 21.767C43.0077 21.8273 43.0416 21.9091 43.0416 21.9944V25.4327C43.0416 25.5179 43.0077 25.5997 42.9474 25.66C42.887 25.7203 42.8052 25.7542 42.7198 25.7542Z" fill="#3B6F7F"/>
<path d="M35.1796 40.2681C35.0942 40.2681 35.0124 40.2342 34.952 40.1739C34.8917 40.1137 34.8578 40.0319 34.8578 39.9466V36.5083C34.8578 36.423 34.8917 36.3412 34.952 36.2809C35.0124 36.2207 35.0942 36.1868 35.1796 36.1868C35.2649 36.1868 35.3467 36.2207 35.4071 36.2809C35.4674 36.3412 35.5013 36.423 35.5013 36.5083V39.9562C35.4988 40.0398 35.4638 40.1191 35.4038 40.1774C35.3437 40.2356 35.2633 40.2682 35.1796 40.2681Z" fill="#3B6F7F"/>
<path d="M38.8225 40.2676C38.7369 40.2676 38.6548 40.2338 38.5941 40.1735C38.5334 40.1133 38.4989 40.0315 38.4983 39.9461V36.5077C38.5053 36.427 38.5423 36.3517 38.6021 36.2969C38.6619 36.2421 38.7401 36.2117 38.8213 36.2117C38.9024 36.2117 38.9806 36.2421 39.0404 36.2969C39.1002 36.3517 39.1373 36.427 39.1442 36.5077V39.9556C39.1417 40.0392 39.1067 40.1186 39.0467 40.1768C38.9866 40.235 38.9062 40.2676 38.8225 40.2676Z" fill="#3B6F7F"/>
<path d="M42.4626 40.2681C42.3773 40.2681 42.2955 40.2342 42.2351 40.1739C42.1748 40.1137 42.1409 40.0319 42.1409 39.9466V36.5083C42.1409 36.423 42.1748 36.3412 42.2351 36.2809C42.2955 36.2207 42.3773 36.1868 42.4626 36.1868C42.548 36.1868 42.6298 36.2207 42.6902 36.2809C42.7505 36.3412 42.7844 36.423 42.7844 36.5083V39.9562C42.7819 40.0398 42.7469 40.1191 42.6868 40.1774C42.6268 40.2356 42.5463 40.2682 42.4626 40.2681Z" fill="#3B6F7F"/>
<path d="M20.3681 40.2681C20.2828 40.2681 20.2009 40.2342 20.1406 40.1739C20.0802 40.1137 20.0463 40.0319 20.0463 39.9466V36.5083C20.0463 36.423 20.0802 36.3412 20.1406 36.2809C20.2009 36.2207 20.2828 36.1868 20.3681 36.1868C20.4535 36.1868 20.5353 36.2207 20.5956 36.2809C20.656 36.3412 20.6899 36.423 20.6899 36.5083V39.9562C20.6874 40.0398 20.6524 40.1191 20.5923 40.1774C20.5322 40.2356 20.4518 40.2682 20.3681 40.2681Z" fill="#3B6F7F"/>
<path d="M24.0085 40.2681C23.9232 40.2681 23.8414 40.2342 23.781 40.1739C23.7207 40.1137 23.6868 40.0319 23.6868 39.9466V36.5083C23.6868 36.423 23.7207 36.3412 23.781 36.2809C23.8414 36.2207 23.9232 36.1868 24.0085 36.1868C24.0939 36.1868 24.1757 36.2207 24.2361 36.2809C24.2964 36.3412 24.3303 36.423 24.3303 36.5083V39.9562C24.3278 40.0398 24.2928 40.1191 24.2328 40.1774C24.1727 40.2356 24.0922 40.2682 24.0085 40.2681Z" fill="#3B6F7F"/>
<path d="M27.649 40.2681C27.5653 40.2682 27.4849 40.2356 27.4248 40.1774C27.3648 40.1191 27.3298 40.0398 27.3273 39.9562V36.5083C27.3273 36.423 27.3612 36.3412 27.4215 36.2809C27.4819 36.2207 27.5637 36.1868 27.649 36.1868C27.7344 36.1868 27.8162 36.2207 27.8766 36.2809C27.9369 36.3412 27.9708 36.423 27.9708 36.5083V39.9562C27.9683 40.0398 27.9333 40.1191 27.8732 40.1774C27.8132 40.2356 27.7328 40.2682 27.649 40.2681Z" fill="#3B6F7F"/>
</svg>
