<svg width="56" height="51" viewBox="0 0 56 51" fill="none" xmlns="http://www.w3.org/2000/svg">
<path d="M54.0718 50.0108H1.9282C1.41047 49.992 0.920212 49.7733 0.560584 49.4007C0.200956 49.0281 0 48.5306 0 48.013C0 47.4953 0.200956 46.9978 0.560584 46.6252C0.920212 46.2526 1.41047 46.0339 1.9282 46.0151H54.0718C54.5895 46.0339 55.0798 46.2526 55.4394 46.6252C55.799 46.9978 56 47.4953 56 48.013C56 48.5306 55.799 49.0281 55.4394 49.4007C55.0798 49.7733 54.5895 49.992 54.0718 50.0108ZM1.9282 46.7201C1.59513 46.7351 1.28068 46.8779 1.0503 47.1187C0.819918 47.3595 0.691349 47.6798 0.691349 48.013C0.691349 48.3461 0.819918 48.6664 1.0503 48.9072C1.28068 49.148 1.59513 49.2908 1.9282 49.3058H54.0718C54.4049 49.2908 54.7193 49.148 54.9497 48.9072C55.1801 48.6664 55.3086 48.3461 55.3086 48.013C55.3086 47.6798 55.1801 47.3595 54.9497 47.1187C54.7193 46.8779 54.4049 46.7351 54.0718 46.7201H1.9282Z" fill="#103F2F"/>
<path d="M51.2865 46.7196H4.71347C4.62082 46.7182 4.53244 46.6805 4.46742 46.6145C4.4024 46.5486 4.36596 46.4597 4.36597 46.3671V17.6137C4.36597 17.5202 4.40313 17.4306 4.46929 17.3645C4.53545 17.2984 4.62517 17.2612 4.71873 17.2612H51.2865C51.3801 17.2612 51.4698 17.2984 51.536 17.3645C51.6021 17.4306 51.6393 17.5202 51.6393 17.6137V46.3671C51.6393 46.4606 51.6021 46.5503 51.536 46.6164C51.4698 46.6825 51.3801 46.7196 51.2865 46.7196ZM5.06624 46.0146H50.9338V17.9662H5.06624V46.0146Z" fill="#103F2F"/>
<path d="M48.4641 46.7196H7.52482C7.43126 46.7196 7.34154 46.6825 7.27538 46.6164C7.20922 46.5503 7.17206 46.4606 7.17206 46.3671V20.4336C7.17547 20.3424 7.21413 20.2561 7.27992 20.1928C7.34571 20.1295 7.4335 20.0942 7.52482 20.0942H48.4641C48.5577 20.0942 48.6474 20.1314 48.7136 20.1975C48.7797 20.2636 48.8169 20.3532 48.8169 20.4467V46.3803C48.8135 46.4715 48.7748 46.5578 48.709 46.6211C48.6432 46.6843 48.5555 46.7197 48.4641 46.7196ZM7.88812 46.0147H48.1114V20.786H7.88812V46.0147Z" fill="#103F2F"/>
<path d="M51.2863 17.9665H4.71325C4.63898 17.9664 4.56666 17.9428 4.5066 17.8991C4.44654 17.8555 4.40179 17.794 4.37874 17.7234C4.3557 17.6529 4.35552 17.5769 4.37824 17.5062C4.40096 17.4356 4.44541 17.3739 4.50527 17.33L27.7957 0.405688C27.8559 0.362253 27.9282 0.338867 28.0024 0.338867C28.0766 0.338867 28.1489 0.362253 28.2091 0.405688L51.489 17.33C51.5489 17.3739 51.5933 17.4356 51.616 17.5062C51.6388 17.5769 51.6386 17.6529 51.6155 17.7234C51.5925 17.794 51.5477 17.8555 51.4877 17.8991C51.4276 17.9428 51.3553 17.9664 51.281 17.9665H51.2863ZM5.79787 17.2616H50.2017L28.0011 1.12643L5.79787 17.2616Z" fill="#103F2F"/>
<path d="M36.7045 14.989H19.2978C19.2043 14.989 19.1145 14.9519 19.0484 14.8858C18.9822 14.8197 18.9451 14.73 18.9451 14.6365V9.46771C18.9451 9.37422 18.9822 9.28457 19.0484 9.21847C19.1145 9.15237 19.2043 9.11523 19.2978 9.11523H36.7045C36.798 9.11523 36.8878 9.15237 36.9539 9.21847C37.0201 9.28457 37.0572 9.37422 37.0572 9.46771V14.6365C37.0572 14.73 37.0201 14.8197 36.9539 14.8858C36.8878 14.9519 36.798 14.989 36.7045 14.989ZM19.6506 14.2841H36.3517V9.81229H19.6506V14.2841Z" fill="#103F2F"/>
<path d="M23.5309 46.72H7.52482C7.43126 46.72 7.34154 46.6829 7.27538 46.6168C7.20922 46.5507 7.17206 46.461 7.17206 46.3675V38.5314C7.17206 38.438 7.20922 38.3483 7.27538 38.2822C7.34154 38.2161 7.43126 38.179 7.52482 38.179H23.5309C23.6245 38.179 23.7142 38.2161 23.7804 38.2822C23.8465 38.3483 23.8837 38.438 23.8837 38.5314V46.3675C23.8837 46.461 23.8465 46.5507 23.7804 46.6168C23.7142 46.6829 23.6245 46.72 23.5309 46.72ZM7.88812 46.015H23.1782V38.8865H7.88812V46.015Z" fill="#103F2F"/>
<path d="M34.5853 46.72H23.5284C23.4349 46.72 23.3451 46.6829 23.279 46.6168C23.2128 46.5507 23.1757 46.461 23.1757 46.3675V38.5314C23.1757 38.438 23.2128 38.3483 23.279 38.2822C23.3451 38.2161 23.4349 38.179 23.5284 38.179H34.5853C34.6788 38.179 34.7686 38.2161 34.8347 38.2822C34.9009 38.3483 34.938 38.438 34.938 38.5314V46.3675C34.938 46.461 34.9009 46.5507 34.8347 46.6168C34.7686 46.6829 34.6788 46.72 34.5853 46.72ZM23.8838 46.015H34.2325V38.8865H23.8838V46.015Z" fill="#103F2F"/>
<path d="M34.5853 31.0502H23.5284C23.4349 31.0502 23.3451 31.013 23.279 30.9469C23.2128 30.8808 23.1757 30.7912 23.1757 30.6977V22.8642C23.1757 22.7707 23.2128 22.6811 23.279 22.615C23.3451 22.5488 23.4349 22.5117 23.5284 22.5117H34.5853C34.6788 22.5117 34.7686 22.5488 34.8347 22.615C34.9009 22.6811 34.938 22.7707 34.938 22.8642V30.6977C34.938 30.7912 34.9009 30.8808 34.8347 30.9469C34.7686 31.013 34.6788 31.0502 34.5853 31.0502ZM23.8838 30.3531H34.2325V23.2246H23.8838V30.3531Z" fill="#103F2F"/>
<path d="M48.4646 46.72H34.5856C34.4921 46.72 34.4023 46.6829 34.3362 46.6168C34.27 46.5507 34.2328 46.461 34.2328 46.3675V38.5314C34.2328 38.438 34.27 38.3483 34.3362 38.2822C34.4023 38.2161 34.4921 38.179 34.5856 38.179H48.4646C48.5582 38.179 48.6479 38.2161 48.714 38.2822C48.7802 38.3483 48.8174 38.438 48.8174 38.5314V46.3675C48.8174 46.461 48.7802 46.5507 48.714 46.6168C48.6479 46.6829 48.5582 46.72 48.4646 46.72ZM34.9384 46.015H48.1013V38.8865H34.9384V46.015Z" fill="#103F2F"/>
<path d="M29.4124 38.8868H15.5334C15.4396 38.8861 15.3499 38.8484 15.2838 38.7818C15.2177 38.7153 15.1807 38.6254 15.1807 38.5317V30.6982C15.1807 30.6519 15.1898 30.6061 15.2075 30.5633C15.2252 30.5205 15.2512 30.4817 15.284 30.449C15.3167 30.4162 15.3556 30.3903 15.3984 30.3725C15.4412 30.3548 15.4871 30.3457 15.5334 30.3457H29.4124C29.4587 30.3457 29.5046 30.3548 29.5474 30.3725C29.5902 30.3903 29.6291 30.4162 29.6619 30.449C29.6946 30.4817 29.7206 30.5205 29.7383 30.5633C29.7561 30.6061 29.7652 30.6519 29.7652 30.6982V38.5317C29.7652 38.6254 29.7281 38.7153 29.662 38.7818C29.5959 38.8484 29.5062 38.8861 29.4124 38.8868ZM15.8862 38.1792H29.0491V31.0507H15.8862V38.1792Z" fill="#103F2F"/>
<path d="M43.2883 38.8868H29.412C29.3182 38.8861 29.2284 38.8484 29.1624 38.7818C29.0963 38.7153 29.0592 38.6254 29.0592 38.5317V30.6982C29.0592 30.6519 29.0683 30.6061 29.0861 30.5633C29.1038 30.5205 29.1298 30.4817 29.1625 30.449C29.1953 30.4162 29.2342 30.3903 29.277 30.3725C29.3198 30.3548 29.3656 30.3457 29.412 30.3457H43.2883C43.3821 30.3457 43.4721 30.3828 43.5387 30.4488C43.6053 30.5148 43.643 30.6045 43.6437 30.6982V38.5317C43.643 38.6256 43.6054 38.7155 43.5389 38.782C43.4724 38.8484 43.3824 38.8861 43.2883 38.8868ZM29.7647 38.1792H42.9277V31.0507H29.7647V38.1792Z" fill="#103F2F"/>
<path d="M34.5848 31.0507C34.512 31.0507 34.4411 31.0276 34.3821 30.9849L23.3253 23.1514C23.2488 23.0973 23.197 23.0151 23.1812 22.9229C23.1654 22.8307 23.1869 22.7359 23.241 22.6595C23.2952 22.5831 23.3774 22.5313 23.4697 22.5156C23.5621 22.4998 23.6569 22.5213 23.7333 22.5753L34.7902 30.4114C34.851 30.4549 34.8964 30.5165 34.9199 30.5874C34.9434 30.6583 34.9437 30.7348 34.9209 30.8059C34.898 30.877 34.8532 30.939 34.7928 30.983C34.7324 31.027 34.6596 31.0507 34.5848 31.0507Z" fill="#103F2F"/>
<path d="M23.5306 31.0507C23.4744 31.0511 23.4189 31.0379 23.3689 31.0123C23.319 30.9866 23.276 30.9493 23.2436 30.9033C23.2166 30.8657 23.1973 30.8231 23.1868 30.778C23.1763 30.7329 23.1748 30.6862 23.1824 30.6405C23.19 30.5948 23.2065 30.5511 23.231 30.5118C23.2555 30.4725 23.2875 30.4384 23.3252 30.4114L34.3821 22.5753C34.4585 22.5213 34.5533 22.4998 34.6457 22.5156C34.6914 22.5234 34.7351 22.5401 34.7743 22.5648C34.8136 22.5895 34.8476 22.6217 34.8744 22.6595C34.9012 22.6973 34.9202 22.7401 34.9305 22.7853C34.9408 22.8305 34.942 22.8772 34.9342 22.9229C34.9264 22.9686 34.9096 23.0123 34.8849 23.0515C34.8602 23.0907 34.828 23.1246 34.7901 23.1514L23.7333 30.9849C23.6745 31.028 23.6034 31.051 23.5306 31.0507Z" fill="#103F2F"/>
<path d="M23.5314 46.7196C23.4774 46.7203 23.4241 46.7076 23.3761 46.6828L7.3805 38.8493C7.33885 38.829 7.30161 38.8006 7.27093 38.7658C7.24025 38.7311 7.21672 38.6906 7.20169 38.6468C7.18665 38.6029 7.18041 38.5565 7.18331 38.5103C7.18621 38.464 7.1982 38.4188 7.2186 38.3772C7.239 38.3356 7.2674 38.2984 7.30219 38.2677C7.33698 38.237 7.37746 38.2135 7.42135 38.1985C7.46523 38.1835 7.51164 38.1772 7.55793 38.1801C7.60422 38.183 7.64949 38.195 7.69115 38.2154L23.6867 46.0515C23.7578 46.0868 23.8149 46.145 23.8488 46.2168C23.8827 46.2886 23.8913 46.3696 23.8734 46.4469C23.8554 46.5242 23.8119 46.5932 23.7498 46.6426C23.6878 46.6921 23.6108 46.7193 23.5314 46.7196Z" fill="#103F2F"/>
<path d="M7.52469 46.7196C7.44529 46.7192 7.36834 46.6921 7.30629 46.6426C7.24423 46.5931 7.2007 46.5242 7.18273 46.4469C7.16477 46.3696 7.17342 46.2886 7.20729 46.2168C7.24116 46.145 7.29827 46.0868 7.36937 46.0515L23.365 38.2154C23.4491 38.1742 23.5461 38.1682 23.6348 38.1985C23.7234 38.2288 23.7963 38.2931 23.8375 38.3772C23.8787 38.4612 23.8848 38.5582 23.8544 38.6467C23.8241 38.7353 23.7597 38.8082 23.6756 38.8493L7.69055 46.6828C7.63944 46.7094 7.58225 46.7221 7.52469 46.7196Z" fill="#103F2F"/>
<path d="M48.4643 46.7197C48.4036 46.7189 48.344 46.7035 48.2905 46.675L34.4142 38.8389C34.3703 38.8182 34.3312 38.7888 34.2992 38.7524C34.2673 38.716 34.2432 38.6734 34.2284 38.6273C34.2137 38.5811 34.2086 38.5324 34.2135 38.4843C34.2184 38.4361 34.2332 38.3894 34.2569 38.3472C34.2807 38.305 34.3129 38.2681 34.3516 38.2389C34.3902 38.2097 34.4345 38.1887 34.4816 38.1773C34.5287 38.166 34.5776 38.1644 34.6254 38.1728C34.6731 38.1812 34.7186 38.1993 34.7591 38.226L48.638 46.0594C48.7064 46.0976 48.7601 46.1573 48.7907 46.2292C48.8213 46.3012 48.8272 46.3812 48.8073 46.4568C48.7874 46.5325 48.7429 46.5993 48.6808 46.6469C48.6187 46.6945 48.5425 46.7201 48.4643 46.7197Z" fill="#103F2F"/>
<path d="M34.5879 46.7202C34.5097 46.7206 34.4335 46.695 34.3714 46.6474C34.3093 46.5998 34.2648 46.5329 34.2449 46.4573C34.225 46.3817 34.2309 46.3016 34.2615 46.2297C34.2921 46.1577 34.3458 46.098 34.4141 46.0599L48.2905 38.2264C48.3309 38.2015 48.3759 38.1849 48.4228 38.1777C48.4698 38.1705 48.5177 38.1728 48.5637 38.1846C48.6097 38.1963 48.6529 38.2172 48.6906 38.2461C48.7283 38.2749 48.7598 38.311 48.7832 38.3523C48.8067 38.3936 48.8215 38.4392 48.8268 38.4863C48.8322 38.5335 48.828 38.5813 48.8144 38.6267C48.8008 38.6722 48.7782 38.7145 48.7479 38.751C48.7176 38.7875 48.6802 38.8176 48.638 38.8393L34.759 46.6754C34.7066 46.7043 34.6478 46.7197 34.5879 46.7202Z" fill="#103F2F"/>
<path d="M22.2066 36.8006C22.1128 36.7999 22.0231 36.7622 21.957 36.6956C21.8909 36.6291 21.8538 36.5392 21.8538 36.4454V32.7839C21.8538 32.6904 21.891 32.6007 21.9571 32.5346C22.0233 32.4685 22.113 32.4314 22.2066 32.4314C22.3001 32.4314 22.3899 32.4685 22.456 32.5346C22.5222 32.6007 22.5594 32.6904 22.5594 32.7839V36.4454C22.5594 36.5392 22.5223 36.6291 22.4562 36.6956C22.3901 36.7622 22.3004 36.7999 22.2066 36.8006Z" fill="#103F2F"/>
<path d="M27.2482 36.8006C27.1544 36.7999 27.0646 36.7622 26.9985 36.6956C26.9325 36.6291 26.8954 36.5392 26.8954 36.4454V32.7839C26.8954 32.6904 26.9326 32.6007 26.9987 32.5346C27.0649 32.4685 27.1546 32.4314 27.2482 32.4314C27.3417 32.4314 27.4314 32.4685 27.4976 32.5346C27.5638 32.6007 27.6009 32.6904 27.6009 32.7839V36.4454C27.6009 36.5392 27.5638 36.6291 27.4978 36.6956C27.4317 36.7622 27.342 36.7999 27.2482 36.8006Z" fill="#103F2F"/>
<path d="M17.292 36.8006C17.1982 36.7999 17.1085 36.7622 17.0424 36.6956C16.9763 36.6291 16.9392 36.5392 16.9392 36.4454V32.7839C16.9392 32.6904 16.9764 32.6007 17.0425 32.5346C17.1087 32.4685 17.1984 32.4314 17.292 32.4314C17.3855 32.4314 17.4753 32.4685 17.5414 32.5346C17.6076 32.6007 17.6447 32.6904 17.6447 32.7839V36.4454C17.6447 36.5392 17.6077 36.6291 17.5416 36.6956C17.4755 36.7622 17.3858 36.7999 17.292 36.8006Z" fill="#103F2F"/>
<path d="M36.3967 36.8006C36.3029 36.7999 36.2132 36.7622 36.1471 36.6956C36.081 36.6291 36.0439 36.5392 36.0439 36.4454V32.7839C36.0439 32.6904 36.0811 32.6007 36.1473 32.5346C36.2134 32.4685 36.3032 32.4314 36.3967 32.4314C36.4903 32.4314 36.58 32.4685 36.6462 32.5346C36.7123 32.6007 36.7495 32.6904 36.7495 32.7839V36.4454C36.7495 36.5392 36.7124 36.6291 36.6463 36.6956C36.5802 36.7622 36.4905 36.7999 36.3967 36.8006Z" fill="#103F2F"/>
<path d="M41.3482 36.8006C41.2544 36.7999 41.1647 36.7622 41.0986 36.6956C41.0326 36.6291 40.9955 36.5392 40.9955 36.4454V32.7839C40.9955 32.6904 41.0326 32.6007 41.0988 32.5346C41.165 32.4685 41.2547 32.4314 41.3482 32.4314C41.4418 32.4314 41.5315 32.4685 41.5977 32.5346C41.6638 32.6007 41.701 32.6904 41.701 32.7839V36.4454C41.701 36.5392 41.6639 36.6291 41.5979 36.6956C41.5318 36.7622 41.442 36.7999 41.3482 36.8006Z" fill="#103F2F"/>
<path d="M31.568 36.8006C31.4742 36.7999 31.3845 36.7622 31.3184 36.6956C31.2523 36.6291 31.2152 36.5392 31.2152 36.4454V32.7839C31.2152 32.6904 31.2524 32.6007 31.3185 32.5346C31.3847 32.4685 31.4744 32.4314 31.568 32.4314C31.6615 32.4314 31.7513 32.4685 31.8174 32.5346C31.8836 32.6007 31.9207 32.6904 31.9207 32.7839V36.4454C31.9207 36.5392 31.8837 36.6291 31.8176 36.6956C31.7515 36.7622 31.6618 36.7999 31.568 36.8006Z" fill="#103F2F"/>
<path d="M29.0121 44.3607C28.9658 44.3607 28.9199 44.3516 28.8771 44.3338C28.8343 44.3161 28.7954 44.2902 28.7627 44.2574C28.7299 44.2247 28.7039 44.1858 28.6862 44.1431C28.6685 44.1003 28.6594 44.0545 28.6594 44.0082V40.8937C28.6594 40.8003 28.6965 40.7106 28.7627 40.6445C28.8288 40.5784 28.9186 40.5413 29.0121 40.5413C29.1057 40.5413 29.1954 40.5784 29.2616 40.6445C29.3277 40.7106 29.3649 40.8003 29.3649 40.8937V44.0082C29.3649 44.1017 29.3277 44.1913 29.2616 44.2574C29.1954 44.3235 29.1057 44.3607 29.0121 44.3607Z" fill="#103F2F"/>
<path d="M32.782 44.3607C32.7356 44.3607 32.6898 44.3516 32.647 44.3338C32.6042 44.3161 32.5653 44.2902 32.5325 44.2574C32.4998 44.2247 32.4738 44.1858 32.456 44.1431C32.4383 44.1003 32.4292 44.0545 32.4292 44.0082V40.8937C32.4292 40.8003 32.4664 40.7106 32.5325 40.6445C32.5987 40.5784 32.6884 40.5413 32.782 40.5413C32.8755 40.5413 32.9653 40.5784 33.0314 40.6445C33.0976 40.7106 33.1347 40.8003 33.1347 40.8937V44.0082C33.1347 44.1017 33.0976 44.1913 33.0314 44.2574C32.9653 44.3235 32.8755 44.3607 32.782 44.3607Z" fill="#103F2F"/>
<path d="M25.3344 44.3607C25.2881 44.3607 25.2422 44.3516 25.1994 44.3338C25.1566 44.3161 25.1177 44.2902 25.085 44.2574C25.0522 44.2247 25.0262 44.1858 25.0085 44.1431C24.9908 44.1003 24.9816 44.0545 24.9816 44.0082V40.8937C24.9816 40.8003 25.0188 40.7106 25.085 40.6445C25.1511 40.5784 25.2408 40.5413 25.3344 40.5413C25.428 40.5413 25.5177 40.5784 25.5838 40.6445C25.65 40.7106 25.6872 40.8003 25.6872 40.8937V44.0082C25.6872 44.1017 25.65 44.1913 25.5838 44.2574C25.5177 44.3235 25.428 44.3607 25.3344 44.3607Z" fill="#103F2F"/>
</svg>
