<svg width="69" height="41" viewBox="0 0 69 41" fill="none" xmlns="http://www.w3.org/2000/svg">
<path d="M66.1171 32.5386H2.38745C1.91331 32.5371 1.45028 32.3951 1.05701 32.1304C0.663747 31.8658 0.357959 31.4904 0.178392 31.052C-0.00117432 30.6135 -0.0464479 30.1316 0.0483306 29.6674C0.143109 29.2032 0.373663 28.7776 0.710776 28.4445C0.932088 28.2209 1.19581 28.0438 1.4865 27.9234C1.77719 27.8029 2.089 27.7417 2.40368 27.7432H66.1333C66.7684 27.7432 67.3776 27.9953 67.8267 28.444C68.2758 28.8928 68.5281 29.5014 68.5281 30.136C68.5281 30.7706 68.2758 31.3793 67.8267 31.828C67.3776 32.2767 66.7684 32.5288 66.1333 32.5288L66.1171 32.5386ZM2.38745 28.623C1.98328 28.623 1.59563 28.7835 1.30984 29.069C1.02404 29.3546 0.863486 29.7419 0.863486 30.1457C0.863486 30.5496 1.02404 30.9369 1.30984 31.2225C1.59563 31.508 1.98328 31.6685 2.38745 31.6685H66.1171C66.5207 31.6668 66.9073 31.5058 67.1927 31.2206C67.4782 30.9354 67.6393 30.5491 67.641 30.1457C67.6401 29.7422 67.4793 29.3554 67.1937 29.07C66.9081 28.7846 66.521 28.6239 66.1171 28.623H2.38745Z" fill="#F16700"/>
<path d="M65.6068 28.623H2.8942C2.77872 28.623 2.66798 28.5772 2.58632 28.4956C2.50467 28.414 2.4588 28.3034 2.4588 28.188V0.435049C2.4588 0.319664 2.50467 0.209009 2.58632 0.127419C2.66798 0.0458298 2.77872 0 2.8942 0H65.6068C65.7222 0 65.833 0.0458298 65.9146 0.127419C65.9963 0.209009 66.0422 0.319664 66.0422 0.435049V28.188C66.0422 28.3034 65.9963 28.414 65.9146 28.4956C65.833 28.5772 65.7222 28.623 65.6068 28.623ZM3.32965 27.7529H65.1714V0.870118H3.32965V27.7529Z" fill="#F16700"/>
<path d="M58.1071 24.1263H54.913C54.7975 24.1263 54.6867 24.0805 54.6051 23.9989C54.5234 23.9173 54.4775 23.8066 54.4775 23.6912V4.93173C54.4775 4.81604 54.5233 4.70503 54.6049 4.62293C54.6864 4.54082 54.7972 4.49427 54.913 4.49341H58.1071C58.2229 4.49427 58.3336 4.54082 58.4152 4.62293C58.4967 4.70503 58.5425 4.81604 58.5425 4.93173V23.6912C58.5425 23.8066 58.4966 23.9173 58.415 23.9989C58.3333 24.0805 58.2226 24.1263 58.1071 24.1263ZM55.3484 23.2562H57.6717V5.36678H55.3484V23.2562Z" fill="#F16700"/>
<path d="M46.9782 24.1263H43.7841C43.6687 24.1263 43.5579 24.0805 43.4762 23.9989C43.3946 23.9173 43.3487 23.8066 43.3487 23.6912V4.93173C43.3487 4.81604 43.3945 4.70503 43.476 4.62293C43.5576 4.54082 43.6684 4.49427 43.7841 4.49341H46.9782C47.094 4.49427 47.2048 4.54082 47.2863 4.62293C47.3679 4.70503 47.4136 4.81604 47.4136 4.93173V23.6912C47.4136 23.8066 47.3678 23.9173 47.2861 23.9989C47.2045 24.0805 47.0937 24.1263 46.9782 24.1263ZM44.2195 23.2497H46.5428V5.3603H44.2195V23.2497Z" fill="#F16700"/>
<path d="M35.8494 24.1263H32.6553C32.5398 24.1263 32.429 24.0805 32.3474 23.9989C32.2657 23.9173 32.2198 23.8066 32.2198 23.6912V4.93173C32.2198 4.81604 32.2656 4.70503 32.3472 4.62293C32.4287 4.54082 32.5395 4.49427 32.6553 4.49341H35.8494C35.9652 4.49427 36.0759 4.54082 36.1575 4.62293C36.239 4.70503 36.2848 4.81604 36.2848 4.93173V23.6912C36.2848 23.8066 36.2389 23.9173 36.1573 23.9989C36.0756 24.0805 35.9649 24.1263 35.8494 24.1263ZM33.0907 23.2562H35.414V5.36678H33.0907V23.2562Z" fill="#F16700"/>
<path d="M24.7202 24.1263H21.5261C21.4107 24.1263 21.2999 24.0805 21.2182 23.9989C21.1366 23.9173 21.0907 23.8066 21.0907 23.6912V4.93173C21.0907 4.81604 21.1365 4.70503 21.218 4.62293C21.2996 4.54082 21.4104 4.49427 21.5261 4.49341H24.7202C24.836 4.49427 24.9468 4.54082 25.0283 4.62293C25.1099 4.70503 25.1556 4.81604 25.1556 4.93173V23.6912C25.1556 23.8066 25.1098 23.9173 25.0281 23.9989C24.9465 24.0805 24.8357 24.1263 24.7202 24.1263ZM21.9615 23.2497H24.2848V5.3603H21.9615V23.2497Z" fill="#F16700"/>
<path d="M13.5915 24.1263H10.3974C10.2819 24.1263 10.1711 24.0805 10.0894 23.9989C10.0078 23.9173 9.96191 23.8066 9.96191 23.6912V4.93173C9.96191 4.81604 10.0077 4.70503 10.0892 4.62293C10.1708 4.54082 10.2816 4.49427 10.3974 4.49341H13.5915C13.7072 4.49427 13.818 4.54082 13.8995 4.62293C13.9811 4.70503 14.0269 4.81604 14.0269 4.93173V23.6912C14.0269 23.8066 13.981 23.9173 13.8993 23.9989C13.8177 24.0805 13.7069 24.1263 13.5915 24.1263ZM10.8328 23.2562H13.1528V5.36678H10.8328V23.2562Z" fill="#F16700"/>
<path d="M10.2513 40.1781C8.95992 40.1738 7.72268 39.6593 6.80955 38.7469C5.89641 37.8346 5.38153 36.5983 5.37724 35.308C5.37439 34.654 5.50455 34.0063 5.75981 33.4041C6.01507 32.8019 6.39014 32.2578 6.86222 31.8048C6.90188 31.7652 6.94901 31.7339 7.00089 31.7128C7.05277 31.6916 7.10835 31.6809 7.16439 31.6814H13.3674C13.4234 31.6809 13.4791 31.6916 13.5309 31.7128C13.5828 31.7339 13.6299 31.7652 13.6696 31.8048C14.2796 32.3881 14.7275 33.1198 14.9693 33.9282C14.9873 33.9932 14.9902 34.0616 14.9778 34.1279C14.9654 34.1943 14.9381 34.257 14.8979 34.3113C14.8577 34.3656 14.8053 34.4098 14.7449 34.4403C14.6845 34.4707 14.6178 34.4866 14.5502 34.4866H10.6509C10.4329 34.4866 10.2238 34.5731 10.0697 34.7272C9.91548 34.8812 9.82888 35.0902 9.82888 35.308C9.82888 35.5259 9.91548 35.7348 10.0697 35.8888C10.2238 36.0429 10.4329 36.1294 10.6509 36.1294H14.5502C14.6177 36.1293 14.6843 36.1449 14.7447 36.1749C14.8052 36.205 14.8578 36.2486 14.8985 36.3025C14.9391 36.3563 14.9667 36.4189 14.979 36.4852C14.9913 36.5515 14.988 36.6198 14.9693 36.6846C14.6638 37.6966 14.0397 38.5832 13.1897 39.2125C12.3397 39.8419 11.3092 40.1805 10.2513 40.1781ZM7.32686 32.5386C6.78708 33.1083 6.42644 33.8238 6.28962 34.5963C6.15279 35.3688 6.24582 36.1645 6.55712 36.8848C6.86842 37.605 7.38431 38.2182 8.04095 38.6483C8.69758 39.0785 9.4661 39.3067 10.2513 39.3047C11.0157 39.302 11.7636 39.0827 12.4083 38.6724C13.0531 38.2621 13.5681 37.6775 13.8938 36.9866H10.6444C10.1954 36.9866 9.76487 36.8083 9.44739 36.4911C9.1299 36.1739 8.95153 35.7436 8.95153 35.295C8.95153 34.8464 9.1299 34.4161 9.44739 34.0989C9.76487 33.7817 10.1954 33.6035 10.6444 33.6035H13.8938C13.7112 33.2118 13.4665 32.8522 13.1692 32.5386H7.32686Z" fill="#F16700"/>
<path d="M23.2648 40.1776C22.2102 40.1729 21.1851 39.8296 20.3408 39.1982C19.4965 38.5668 18.8777 37.6808 18.5759 36.6712C18.5567 36.6062 18.5532 36.5376 18.5656 36.471C18.578 36.4044 18.6061 36.3417 18.6474 36.288C18.6883 36.2346 18.7409 36.1914 18.8012 36.1615C18.8615 36.1317 18.9278 36.1161 18.9951 36.116H22.0073C22.1156 36.116 22.2227 36.0945 22.3226 36.0527C22.4224 36.0109 22.513 35.9496 22.5889 35.8725C22.6658 35.7973 22.7268 35.7073 22.7681 35.608C22.8095 35.5087 22.8303 35.4021 22.8293 35.2945C22.8293 35.0767 22.7427 34.8678 22.5886 34.7137C22.4344 34.5597 22.2253 34.4731 22.0073 34.4731H18.9951C18.9275 34.4731 18.8608 34.4573 18.8004 34.4268C18.74 34.3964 18.6876 34.3522 18.6474 34.2978C18.6058 34.2443 18.5776 34.1816 18.5652 34.1149C18.5528 34.0483 18.5564 33.9796 18.5759 33.9147C18.8139 33.1091 19.2547 32.378 19.8562 31.7913C19.9385 31.7127 20.0478 31.6686 20.1616 31.668H26.3809C26.4933 31.6678 26.6015 31.7108 26.6831 31.7881C27.1554 32.2416 27.5306 32.7862 27.7859 33.389C28.0411 33.9918 28.1712 34.64 28.168 35.2945C28.1676 35.937 28.0404 36.5732 27.7936 37.1665C27.5468 37.7598 27.1854 38.2986 26.73 38.7522C26.2746 39.2057 25.734 39.5651 25.1394 39.8097C24.5448 40.0543 23.9078 40.1793 23.2648 40.1776ZM19.6255 36.9861C20.0119 37.8132 20.6689 38.484 21.4882 38.8878C22.3075 39.2915 23.24 39.4042 24.132 39.2071C25.0239 39.01 25.822 38.5149 26.3945 37.8037C26.967 37.0924 27.2797 36.2073 27.281 35.2945C27.2851 34.2684 26.8915 33.2806 26.1827 32.5381H20.3339C20.0386 32.8527 19.7951 33.2122 19.6125 33.603H21.9975C22.4465 33.603 22.8771 33.7812 23.1946 34.0984C23.5121 34.4157 23.6904 34.8459 23.6904 35.2945C23.6919 35.5168 23.6486 35.7371 23.5632 35.9424C23.4778 36.1476 23.352 36.3336 23.1933 36.4894C22.8759 36.8061 22.4461 36.9847 21.9975 36.9861H19.6255Z" fill="#F16700"/>
<path d="M22.007 36.9866H10.6343C10.1853 36.9866 9.75468 36.8084 9.4372 36.4911C9.11971 36.1739 8.94135 35.7437 8.94135 35.295C8.94135 34.8464 9.11971 34.4162 9.4372 34.0989C9.75468 33.7817 10.1853 33.6035 10.6343 33.6035H22.007C22.2293 33.6035 22.4495 33.6473 22.6549 33.7323C22.8603 33.8173 23.0469 33.9419 23.2041 34.0989C23.3613 34.256 23.486 34.4425 23.5711 34.6477C23.6561 34.8529 23.6999 35.0729 23.6999 35.295C23.7014 35.5173 23.6581 35.7376 23.5727 35.9429C23.4873 36.1481 23.3615 36.3341 23.2028 36.4899C22.8854 36.8066 22.4556 36.9852 22.007 36.9866ZM10.6343 34.4736C10.4163 34.4736 10.2071 34.5602 10.053 34.7142C9.89879 34.8683 9.81219 35.0772 9.81219 35.295C9.81219 35.5129 9.89879 35.7218 10.053 35.8759C10.2071 36.0299 10.4163 36.1165 10.6343 36.1165H22.007C22.1153 36.1165 22.2225 36.095 22.3223 36.0532C22.4222 36.0114 22.5127 35.9501 22.5886 35.873C22.6656 35.7978 22.7266 35.7078 22.7679 35.6085C22.8092 35.5092 22.83 35.4026 22.8291 35.295C22.8291 35.0772 22.7425 34.8683 22.5883 34.7142C22.4341 34.5602 22.2251 34.4736 22.007 34.4736H10.6343Z" fill="#F16700"/>
<path d="M45.2275 40.1781C43.9361 40.1738 42.6989 39.6593 41.7857 38.7469C40.8726 37.8346 40.3577 36.5983 40.3534 35.308C40.3506 34.654 40.4807 34.0063 40.736 33.4041C40.9913 32.8019 41.3663 32.2578 41.8384 31.8048C41.878 31.7652 41.9252 31.7339 41.9771 31.7128C42.029 31.6916 42.0845 31.6809 42.1406 31.6814H48.3436C48.3996 31.6809 48.4552 31.6916 48.5071 31.7128C48.559 31.7339 48.6061 31.7652 48.6458 31.8048C49.2546 32.3891 49.7023 33.1204 49.9455 33.9282C49.9645 33.993 49.9681 34.0612 49.9563 34.1277C49.9445 34.1941 49.9174 34.257 49.8773 34.3113C49.8371 34.3656 49.7847 34.4098 49.7243 34.4403C49.6639 34.4707 49.5973 34.4866 49.5296 34.4866H45.6304C45.4126 34.4874 45.204 34.5743 45.0501 34.7281C44.8961 34.882 44.8091 35.0904 44.8083 35.308C44.8091 35.5256 44.8961 35.734 45.0501 35.8879C45.204 36.0418 45.4126 36.1286 45.6304 36.1294H49.5296C49.5971 36.1291 49.6637 36.1447 49.7241 36.1747C49.7844 36.2047 49.8369 36.2485 49.8774 36.3025C49.9178 36.3564 49.945 36.4191 49.9568 36.4855C49.9687 36.5518 49.9648 36.62 49.9455 36.6846C49.6409 37.6972 49.017 38.5843 48.1668 39.2138C47.3167 39.8433 46.2857 40.1816 45.2275 40.1781ZM42.3031 32.5386C41.5934 33.2805 41.1996 34.2687 41.2048 35.295C41.2045 36.209 41.5165 37.0958 42.0892 37.8085C42.6619 38.5213 43.4609 39.0173 44.3541 39.2146C45.2473 39.4118 46.1812 39.2986 47.0012 38.8934C47.8212 38.4883 48.4782 37.8155 48.8635 36.9866H45.6141C45.279 36.9876 44.9511 36.889 44.6722 36.7034C44.3933 36.5177 44.1759 36.2534 44.0477 35.944C43.9195 35.6346 43.8863 35.2941 43.9523 34.9658C44.0183 34.6374 44.1806 34.3362 44.4184 34.1002C44.5748 33.9423 44.761 33.8171 44.9663 33.7319C45.1716 33.6466 45.3918 33.6029 45.6141 33.6035H48.8635C48.6809 33.2126 48.4374 32.8532 48.1421 32.5386H42.3031Z" fill="#F16700"/>
<path d="M58.2534 40.1776C57.1987 40.1735 56.1733 39.8303 55.3289 39.1988C54.4845 38.5673 53.8659 37.6811 53.5646 36.6712C53.5456 36.6064 53.5419 36.5381 53.5538 36.4716C53.5656 36.4052 53.5927 36.3423 53.6328 36.288C53.6745 36.2347 53.7277 36.1916 53.7885 36.1618C53.8493 36.132 53.916 36.1163 53.9837 36.116H56.9959C57.1041 36.116 57.2113 36.0945 57.3112 36.0527C57.4111 36.0109 57.5016 35.9496 57.5775 35.8725C57.6545 35.7973 57.7154 35.7073 57.7568 35.608C57.7981 35.5087 57.8189 35.4021 57.818 35.2945C57.818 35.0767 57.7314 34.8678 57.5772 34.7137C57.423 34.5597 57.2139 34.4731 56.9959 34.4731H54C53.9319 34.4729 53.8648 34.4569 53.8039 34.4265C53.7431 34.3961 53.6901 34.3521 53.6491 34.2978C53.6089 34.2435 53.5819 34.1807 53.57 34.1142C53.5582 34.0478 53.5619 33.9795 53.5808 33.9147C53.821 33.1101 54.2615 32.3796 54.8611 31.7913C54.9433 31.7127 55.0526 31.6686 55.1665 31.668H61.3695C61.4819 31.6678 61.5901 31.7108 61.6717 31.7881C62.144 32.2416 62.5192 32.7862 62.7745 33.389C63.0297 33.9918 63.1598 34.64 63.1567 35.2945C63.1558 35.9369 63.0283 36.5729 62.7814 37.166C62.5344 37.7591 62.173 38.2978 61.7176 38.7512C61.2623 39.2047 60.7219 39.5641 60.1275 39.8088C59.5331 40.0536 58.8963 40.1789 58.2534 40.1776ZM54.6108 36.9861C54.9962 37.8151 55.6532 38.4878 56.4732 38.8929C57.2932 39.2981 58.227 39.4114 59.1202 39.2141C60.0134 39.0168 60.8125 38.5208 61.3851 37.8081C61.9578 37.0953 62.2698 36.2086 62.2696 35.2945C62.2737 34.2684 61.8801 33.2806 61.1713 32.5381H55.3224C55.0271 32.8527 54.7837 33.2122 54.6011 33.603H56.9861C57.4351 33.603 57.8657 33.7812 58.1832 34.0984C58.5007 34.4157 58.679 34.8459 58.679 35.2945C58.6805 35.5168 58.6372 35.7371 58.5518 35.9424C58.4664 36.1476 58.3406 36.3336 58.1819 36.4894C57.8643 36.8058 57.4346 36.9843 56.9861 36.9861H54.6108Z" fill="#F16700"/>
<path d="M56.9961 36.9866H45.6233C45.2882 36.9876 44.9603 36.8891 44.6813 36.7034C44.4024 36.5178 44.185 36.2534 44.0569 35.944C43.9287 35.6346 43.8955 35.2941 43.9615 34.9658C44.0275 34.6375 44.1897 34.3362 44.4276 34.1003C44.584 33.9424 44.7702 33.8172 44.9755 33.7319C45.1808 33.6466 45.401 33.603 45.6233 33.6035H56.9961C57.2184 33.6035 57.4385 33.6473 57.6439 33.7323C57.8493 33.8173 58.0359 33.9419 58.1931 34.099C58.3503 34.256 58.475 34.4425 58.5601 34.6477C58.6452 34.853 58.689 35.0729 58.689 35.295C58.6905 35.5173 58.6472 35.7376 58.5618 35.9429C58.4764 36.1481 58.3506 36.3341 58.1918 36.4899C57.8743 36.8063 57.4446 36.9848 56.9961 36.9866ZM45.6233 34.4736C45.4055 34.4745 45.197 34.5613 45.043 34.7152C44.889 34.869 44.8021 35.0775 44.8012 35.295C44.8021 35.5126 44.889 35.7211 45.043 35.8749C45.197 36.0288 45.4055 36.1156 45.6233 36.1165H56.9961C57.1043 36.1165 57.2115 36.095 57.3114 36.0532C57.4113 36.0114 57.5018 35.9501 57.5777 35.873C57.6547 35.7978 57.7156 35.7078 57.7569 35.6085C57.7983 35.5092 57.8191 35.4026 57.8182 35.295C57.8182 35.0772 57.7316 34.8683 57.5774 34.7142C57.4232 34.5602 57.2141 34.4736 56.9961 34.4736H45.6233Z" fill="#F16700"/>
</svg>
