<svg width="299" height="96" viewBox="0 0 299 96" fill="none" xmlns="http://www.w3.org/2000/svg">
<rect width="298.667" height="96" rx="16" fill="#F16700"/>
<path d="M258.297 77.6795C253.507 77.6795 249.33 76.7582 245.768 74.9156C242.205 73.0116 239.165 70.4319 236.647 67.1766L238.766 65.1497C241.345 68.6507 244.263 71.169 247.518 72.7045C250.773 74.1786 254.428 74.9156 258.482 74.9156C263.027 74.9156 266.743 73.81 269.629 71.5989C272.516 69.3878 273.96 66.3167 273.96 62.3858C273.96 59.4376 273.345 57.0422 272.117 55.1996C270.95 53.2956 269.384 51.7601 267.418 50.5931C265.453 49.4261 263.303 48.4126 260.969 47.5528C258.635 46.6314 256.301 45.7409 253.967 44.881C251.633 43.9597 249.484 42.8541 247.518 41.5643C245.553 40.213 243.956 38.5239 242.727 36.4971C241.56 34.4088 240.977 31.7677 240.977 28.5738C240.977 25.5642 241.683 22.9538 243.096 20.7427C244.57 18.4701 246.597 16.7196 249.176 15.4912C251.756 14.2014 254.766 13.5565 258.205 13.5565C262.198 13.5565 265.76 14.3242 268.892 15.8598C272.025 17.3953 274.697 19.6064 276.908 22.4932L274.789 24.5201C272.7 21.879 270.305 19.8521 267.603 18.4394C264.961 17.0268 261.829 16.3204 258.205 16.3204C254.029 16.3204 250.62 17.3953 247.979 19.545C245.338 21.6947 244.017 24.6736 244.017 28.4817C244.017 31.2456 244.601 33.5182 245.768 35.2994C246.996 37.0191 248.593 38.4625 250.558 39.6295C252.524 40.7351 254.674 41.7178 257.008 42.5777C259.341 43.3762 261.675 44.236 264.009 45.1574C266.343 46.0787 268.493 47.2149 270.459 48.5662C272.424 49.9174 273.99 51.6679 275.157 53.8177C276.386 55.906 277 58.5777 277 61.833C277 67.0538 275.311 71.0154 271.933 73.7179C268.616 76.359 264.071 77.6795 258.297 77.6795Z" fill="white"/>
<path d="M36.0236 43.666C33.882 43.666 31.8851 43.2762 30.0329 42.4966C28.2097 41.7169 26.618 40.6196 25.2578 39.2047C23.8976 37.7898 22.8412 36.1583 22.0888 34.3103C21.3653 32.4334 21.0035 30.4265 21.0035 28.2897C21.0035 26.1529 21.3653 24.1605 22.0888 22.3124C22.8412 20.4355 23.8831 18.804 25.2144 17.418C26.5746 16.032 28.1663 14.9491 29.9895 14.1695C31.8128 13.3898 33.7807 13 35.8934 13C38.1797 13 40.22 13.4043 42.0143 14.2128C43.8375 15.0213 45.4293 16.133 46.7895 17.5479L44.6189 19.7136C43.5771 18.5586 42.3182 17.6634 40.8422 17.0282C39.3662 16.364 37.7166 16.032 35.8934 16.032C34.2148 16.032 32.6665 16.3351 31.2484 16.9415C29.8593 17.5479 28.6293 18.4142 27.5585 19.5404C26.5167 20.6376 25.7063 21.937 25.1275 23.4386C24.5777 24.9112 24.3027 26.5283 24.3027 28.2897C24.3027 30.0511 24.5921 31.6826 25.1709 33.1841C25.7497 34.6857 26.5601 35.9995 27.6019 37.1257C28.6438 38.2229 29.8738 39.0748 31.2918 39.6812C32.7099 40.2876 34.2582 40.5908 35.9368 40.5908C37.8469 40.5908 39.5399 40.2587 41.0159 39.5945C42.5208 38.9304 43.7941 38.0208 44.836 36.8658L47.0065 39.0748C45.6753 40.4897 44.0835 41.6158 42.2313 42.4532C40.3792 43.2618 38.3099 43.666 36.0236 43.666Z" fill="white"/>
<path d="M54.619 29.8923V27.2069H63.3011C65.2691 27.2069 66.774 26.716 67.8158 25.7342C68.8577 24.7235 69.3786 23.3808 69.3786 21.706C69.3786 20.089 68.8577 18.7751 67.8158 17.7645C66.774 16.725 65.2691 16.2052 63.3011 16.2052H54.619V13.4331H63.3011C65.2402 13.4331 66.9042 13.7941 68.2934 14.516C69.6825 15.209 70.7388 16.1763 71.4624 17.418C72.2148 18.6596 72.591 20.0746 72.591 21.6627C72.591 23.3086 72.2148 24.7524 71.4624 25.9941C70.7388 27.2357 69.6825 28.2031 68.2934 28.8961C66.9042 29.5602 65.2402 29.8923 63.3011 29.8923H54.619ZM52.5787 43.2329V13.4331H55.7477V43.2329H52.5787ZM70.6375 43.2329L59.4376 29.4592L62.5197 28.463L74.7182 43.2329H70.6375Z" fill="white"/>
<path d="M79.456 43.2329V13.4331H82.625V43.2329H79.456ZM81.5397 43.2329V40.3309H99.1211V43.2329H81.5397ZM81.5397 29.3725V26.5572H97.7319V29.3725H81.5397ZM81.5397 16.3351V13.4331H98.8606V16.3351H81.5397Z" fill="white"/>
<path d="M102.805 43.2329L115.047 13.4331H117.435L129.546 43.2329H126.117L115.568 16.8982H116.827L106.191 43.2329H102.805ZM108.405 35.4798V32.6644H124.033V35.4798H108.405Z" fill="white"/>
<path d="M138.662 43.2329V14.2561H141.874V43.2329H138.662ZM128.156 16.3351V13.4331H152.38V16.3351H128.156Z" fill="white"/>
<path d="M63.2536 77.8168C60.9891 77.8168 59.0359 77.3935 57.3942 76.5469C55.7524 75.6721 54.3088 74.4587 53.0633 72.9066L55.2287 70.7902C56.2194 72.1729 57.3659 73.2029 58.668 73.8802C59.9984 74.5575 61.5694 74.8961 63.381 74.8961C65.2492 74.8961 66.7636 74.4728 67.9242 73.6262C69.0847 72.7796 69.665 71.6085 69.665 70.1129C69.665 68.9559 69.3961 68.0106 68.8583 67.2769C68.3205 66.5149 67.6128 65.9082 66.7353 65.4567C65.8861 64.977 64.9378 64.5537 63.8905 64.1868C62.8432 63.82 61.7958 63.439 60.7485 63.0439C59.7294 62.6206 58.7812 62.0986 57.9037 61.4778C57.0262 60.8569 56.3185 60.0668 55.7807 59.1073C55.2712 58.1479 55.0164 56.9203 55.0164 55.4247C55.0164 53.8444 55.3986 52.4899 56.1628 51.3611C56.9271 50.2323 57.9744 49.3716 59.3048 48.779C60.6353 48.1582 62.1496 47.8478 63.848 47.8478C65.7446 47.8478 67.4288 48.2146 68.9007 48.9483C70.401 49.682 71.6465 50.6697 72.6372 51.9114L70.5142 54.0278C69.6084 52.9555 68.6177 52.1371 67.542 51.5727C66.4664 51.0083 65.2067 50.7261 63.7631 50.7261C62.0647 50.7261 60.706 51.1212 59.687 51.9114C58.668 52.7015 58.1584 53.8021 58.1584 55.213C58.1584 56.3136 58.4132 57.2025 58.9227 57.8798C59.4605 58.557 60.1682 59.1214 61.0457 59.5729C61.9232 60.0244 62.8715 60.4336 63.8905 60.8005C64.9378 61.1391 65.9852 61.5201 67.0325 61.9434C68.0798 62.3667 69.0281 62.9028 69.8773 63.5519C70.7548 64.2009 71.4625 65.0334 72.0003 66.0493C72.5381 67.037 72.807 68.3069 72.807 69.8589C72.807 72.3705 71.9437 74.3317 70.217 75.7427C68.5186 77.1254 66.1975 77.8168 63.2536 77.8168Z" fill="white"/>
<path d="M88.335 65.7107V62.9593H96.9543C98.1432 62.9593 99.2047 62.7194 100.139 62.2397C101.101 61.7599 101.851 61.0827 102.389 60.2079C102.955 59.3049 103.238 58.2325 103.238 56.9909C103.238 55.7492 102.955 54.691 102.389 53.8162C101.851 52.9131 101.101 52.2218 100.139 51.742C99.2047 51.2341 98.1432 50.9801 96.9543 50.9801H88.335V48.271H97.1666C98.9216 48.271 100.493 48.6379 101.88 49.3716C103.267 50.0771 104.356 51.0789 105.149 52.377C105.97 53.6751 106.38 55.213 106.38 56.9909C106.38 58.7405 105.97 60.2784 105.149 61.6047C104.356 62.9028 103.267 63.9187 101.88 64.6524C100.493 65.3579 98.9216 65.7107 97.1666 65.7107H88.335ZM86.3394 77.3935V48.271H89.4389V77.3935H86.3394Z" fill="white"/>
<path d="M164.327 77.8168C162.226 77.8168 160.267 77.4359 158.45 76.6739C156.661 75.912 155.1 74.8397 153.765 73.4569C152.431 72.0742 151.394 70.4798 150.656 68.6737C149.946 66.8395 149.592 64.8782 149.592 62.79C149.592 60.7017 149.946 58.7546 150.656 56.9485C151.394 55.1143 152.417 53.5199 153.723 52.1653C155.057 50.8108 156.618 49.7526 158.407 48.9906C160.196 48.2287 162.126 47.8478 164.199 47.8478C166.442 47.8478 168.444 48.2428 170.204 49.033C171.993 49.8231 173.554 50.9096 174.889 52.2923L172.759 54.4088C171.737 53.28 170.502 52.4052 169.054 51.7844C167.606 51.1353 165.988 50.8108 164.199 50.8108C162.552 50.8108 161.033 51.1071 159.642 51.6997C158.279 52.2923 157.073 53.1389 156.022 54.2395C155 55.3118 154.205 56.5817 153.637 58.0491C153.098 59.4883 152.828 61.0686 152.828 62.79C152.828 64.5113 153.112 66.1057 153.68 67.5732C154.248 69.0406 155.043 70.3246 156.065 71.4251C157.087 72.4975 158.294 73.3299 159.685 73.9225C161.076 74.5151 162.595 74.8115 164.242 74.8115C166.115 74.8115 167.776 74.4869 169.224 73.8379C170.701 73.1888 171.95 72.2999 172.972 71.1711L175.101 73.3299C173.795 74.7127 172.234 75.8132 170.417 76.6316C168.6 77.4218 166.57 77.8168 164.327 77.8168Z" fill="white"/>
<path d="M188.234 77.3935V48.271H191.343V77.3935H188.234Z" fill="white"/>
<path d="M219.707 77.8168C217.634 77.8168 215.704 77.4359 213.915 76.6739C212.155 75.8838 210.607 74.8115 209.273 73.4569C207.938 72.0742 206.888 70.4798 206.121 68.6737C205.383 66.8395 205.014 64.8782 205.014 62.79C205.014 60.6735 205.383 58.7122 206.121 56.9062C206.86 55.1002 207.896 53.5199 209.23 52.1653C210.565 50.8108 212.112 49.7526 213.872 48.9906C215.633 48.2287 217.549 47.8478 219.622 47.8478C221.694 47.8478 223.611 48.2287 225.371 48.9906C227.16 49.7526 228.721 50.8108 230.055 52.1653C231.39 53.5199 232.426 55.1143 233.164 56.9485C233.903 58.7546 234.272 60.7158 234.272 62.8323C234.272 64.9205 233.903 66.8818 233.164 68.716C232.426 70.5221 231.39 72.1024 230.055 73.4569C228.749 74.8115 227.216 75.8838 225.456 76.6739C223.696 77.4359 221.779 77.8168 219.707 77.8168ZM219.622 74.8115C221.836 74.8115 223.795 74.2894 225.499 73.2453C227.231 72.2012 228.579 70.7761 229.544 68.97C230.538 67.164 231.035 65.104 231.035 62.79C231.035 61.0686 230.751 59.4883 230.183 58.0491C229.615 56.5817 228.82 55.3118 227.798 54.2395C226.776 53.1389 225.57 52.2923 224.178 51.6997C222.816 51.1071 221.297 50.8108 219.622 50.8108C217.435 50.8108 215.476 51.3329 213.745 52.377C212.041 53.3929 210.692 54.8038 209.699 56.6099C208.733 58.4159 208.251 60.476 208.251 62.79C208.251 64.5113 208.535 66.1057 209.102 67.5732C209.67 69.0406 210.465 70.3246 211.487 71.4251C212.509 72.4975 213.716 73.3299 215.107 73.9225C216.499 74.5151 218.003 74.8115 219.622 74.8115Z" fill="white"/>
<path d="M115.092 77.4683L127.057 47.8478H129.391L141.228 77.4683H137.876L127.566 51.292H128.797L118.402 77.4683H115.092ZM120.566 69.7618V66.9634H135.84V69.7618H120.566Z" fill="white"/>
<path d="M187.978 43.2329L176.076 13.4331H179.551L189.846 39.7245H188.586L198.968 13.4331H202.356L190.367 43.2329H187.978Z" fill="white"/>
<path d="M219.416 43.666C217.302 43.666 215.332 43.2762 213.508 42.4966C211.713 41.688 210.134 40.5908 208.773 39.2047C207.412 37.7898 206.341 36.1583 205.559 34.3103C204.806 32.4334 204.429 30.4265 204.429 28.2897C204.429 26.124 204.806 24.1172 205.559 22.2691C206.312 20.4211 207.369 18.804 208.73 17.418C210.091 16.032 211.669 14.9491 213.465 14.1695C215.26 13.3898 217.215 13 219.329 13C221.443 13 223.398 13.3898 225.193 14.1695C227.017 14.9491 228.61 16.032 229.971 17.418C231.332 18.804 232.389 20.4355 233.142 22.3124C233.895 24.1605 234.272 26.1673 234.272 28.333C234.272 30.4698 233.895 32.4767 233.142 34.3536C232.389 36.2016 231.332 37.8187 229.971 39.2047C228.639 40.5908 227.075 41.688 225.28 42.4966C223.484 43.2762 221.53 43.666 219.416 43.666ZM219.329 40.5908C221.588 40.5908 223.586 40.0566 225.323 38.9882C227.09 37.9198 228.465 36.4615 229.45 34.6135C230.464 32.7654 230.97 30.6575 230.97 28.2897C230.97 26.5283 230.681 24.9112 230.102 23.4386C229.522 21.937 228.712 20.6376 227.669 19.5404C226.627 18.4142 225.396 17.5479 223.977 16.9415C222.587 16.3351 221.037 16.032 219.329 16.032C217.099 16.032 215.101 16.5662 213.334 17.6346C211.597 18.6741 210.221 20.1179 209.208 21.9659C208.223 23.814 207.731 25.9219 207.731 28.2897C207.731 30.0511 208.02 31.6826 208.599 33.1841C209.179 34.6857 209.989 35.9995 211.032 37.1257C212.075 38.2229 213.305 39.0748 214.724 39.6812C216.143 40.2876 217.678 40.5908 219.329 40.5908Z" fill="white"/>
<path d="M21 48.1079H47.4296V50.9065H21V48.1079Z" fill="white"/>
<path d="M21 61.3014H47.4296V64.1H21V61.3014Z" fill="white"/>
<path d="M21 74.8947H47.4296V77.6933H21V74.8947Z" fill="white"/>
<path d="M47.4296 48.1079V77.6933H44.6682V48.1079L47.4296 48.1079Z" fill="white"/>
<path d="M162.221 21.6784H165.377V43.3743H162.221V21.6784Z" fill="white"/>
<path d="M166.166 15.9585C166.166 17.3746 165.018 18.5225 163.602 18.5225C162.186 18.5225 161.038 17.3746 161.038 15.9585C161.038 14.5424 162.186 13.3944 163.602 13.3944C165.018 13.3944 166.166 14.5424 166.166 15.9585Z" fill="white"/>
</svg>
