<svg width="148" height="26" viewBox="0 0 148 26" fill="none" xmlns="http://www.w3.org/2000/svg">
<path d="M-4.58488 2.36364L-3.17246 0L9.53929 6.20455L22.9572 0L36.7283 6.20455L50.8525 0L63.9173 6.20455L78.0415 0L91.4595 6.20455L105.584 0L119.002 6.20455L132.066 0L147.25 6.20455L144.778 8.86364L132.066 3.25L119.002 9.75L105.584 3.25L91.4595 9.75L78.0415 3.25L63.9173 9.75L50.8525 3.25L36.7283 9.75L22.9572 3.25L9.53929 9.75L-4.58488 2.36364Z" fill="#841C03"/>
<path d="M-12 18.6136L-10.5876 16.25L2.12417 22.4545L15.5421 16.25L29.3132 22.4545L43.4374 16.25L56.5022 22.4545L70.6264 16.25L84.0443 22.4545L98.1685 16.25L111.586 22.4545L124.651 16.25L139.835 22.4545L137.363 25.1136L124.651 19.5L111.586 26L98.1685 19.5L84.0443 26L70.6264 19.5L56.5022 26L43.4374 19.5L29.3132 26L15.5421 19.5L2.12417 26L-12 18.6136Z" fill="#841C03"/>
</svg>
